<svg width="24" height="24" viewBox="0 0 24 24" fill="none" xmlns="http://www.w3.org/2000/svg">
<path fill-rule="evenodd" clip-rule="evenodd" d="M4.45094 5.31858C4.11669 5.40845 3.78791 5.60376 3.54869 5.8546C3.15168 6.27081 3.00001 6.69605 3.00001 7.39295V7.82648H12H21V7.39295C21 7.13332 20.9753 6.86472 20.9385 6.72326C20.7579 6.03026 20.2224 5.49649 19.5257 5.315C19.1843 5.22608 4.78217 5.22946 4.45094 5.31858ZM3.00001 12.76C3.00001 16.7247 2.99459 16.6207 3.22533 17.0761C3.36885 17.3593 3.7178 17.715 3.99929 17.8651C4.49328 18.1284 3.96787 18.1122 12 18.1122C19.9541 18.1122 19.4935 18.1252 19.9639 17.8868C20.2472 17.7433 20.6029 17.3944 20.7529 17.1129C21.0077 16.6349 21 16.7705 21 12.76V9.11219H12H3.00001V12.76ZM17.489 13.7151C17.6998 13.8726 17.7656 14.0009 17.7656 14.255C17.7656 14.5091 17.6998 14.6375 17.489 14.795C17.3809 14.8758 17.3264 14.8781 15.3018 14.89C13.9148 14.8982 13.1767 14.888 13.0785 14.8594C12.6701 14.7404 12.5126 14.1825 12.7931 13.8491C12.9951 13.609 12.9474 13.6134 15.2616 13.6233C17.3293 13.6321 17.3807 13.6342 17.489 13.7151Z" fill="#F18D1E"/>
</svg>
