<svg width="66" height="24" viewBox="0 0 66 24" fill="none" xmlns="http://www.w3.org/2000/svg">
<g opacity="0.3">
<path fill-rule="evenodd" clip-rule="evenodd" d="M27.2749 0.0802644C27.066 0.193435 27.0043 0.371883 27.0051 0.859804C27.0066 1.61404 27.1981 2.23537 27.584 2.73702C27.6783 2.85966 27.7554 2.96889 27.7554 2.97972C27.7554 2.99059 27.4262 3.0062 27.0239 3.01449L26.2923 3.02949L26.1554 3.18254C25.9624 3.39833 25.9653 3.64857 26.163 3.84595L26.3074 3.99015H27.407H28.5065V7.9968C28.5065 11.6383 28.4997 12.0034 28.4314 12.0034C28.3901 12.0034 28.2864 12.0733 28.2009 12.1586C28.0808 12.2784 28.0394 12.3663 28.0184 12.5452C27.8789 13.7334 27.5604 14.3095 26.6067 15.0991C25.8202 15.7501 25.3985 16.1925 24.9341 16.8536C24.3445 17.6929 24 18.7115 24 19.6157C24 19.9192 24.1136 20.5893 24.2167 20.8935C24.589 21.9924 25.4426 22.8622 26.6439 23.3669C26.909 23.4783 26.9798 23.5321 27.0551 23.6794C27.2244 24.0106 27.1259 24 30.0087 24C32.8915 24 32.793 24.0106 32.9623 23.6794C33.0376 23.5321 33.1084 23.4783 33.3735 23.3669C34.3752 22.946 35.1837 22.228 35.5865 21.4014C36.1271 20.2921 36.1474 19.0397 35.6441 17.8588C35.3544 17.1794 34.8384 16.4485 34.1944 15.8056L33.8017 15.4136L34.6514 14.5609C35.4795 13.7297 35.501 13.7032 35.501 13.5135C35.501 13.3645 35.4684 13.2817 35.3618 13.1605L35.2226 13.0022L35.7071 12.5263L36.1916 12.0503H36.4378C36.6552 12.0503 36.7027 12.069 36.8436 12.2096L37.0032 12.369L37.0041 17.1652C37.0047 19.8031 37.0244 22.0945 37.0479 22.257C37.2088 23.3679 38.2465 24.142 39.3336 23.9622C40.1961 23.8195 40.8693 23.1289 40.9956 22.257C41.0195 22.0919 41.0389 19.3959 41.0394 16.1478L41.0403 10.3341L41.1757 10.2341C41.465 10.0206 41.5933 9.49477 41.443 9.1389C41.4063 9.05197 41.3007 8.9082 41.2083 8.8194C40.9855 8.6052 40.9767 8.39563 41.1832 8.2222C41.5207 7.93873 41.6111 7.42602 41.3913 7.04228L41.2741 6.83749L41.5342 6.588C41.8918 6.24507 42.0024 5.98972 42 5.51314C41.9978 5.09026 41.9041 4.82447 41.659 4.54583C41.5174 4.38481 41.5055 4.33448 41.2552 2.84068C41.0057 1.35124 40.9929 1.29693 40.859 1.16323C40.6638 0.968382 40.3841 0.968382 40.1889 1.16323C40.055 1.29693 40.0422 1.35124 39.7927 2.84068C39.5424 4.33448 39.5304 4.38481 39.3889 4.54583C39.1438 4.82447 39.0501 5.09026 39.0479 5.51314C39.0465 5.79801 39.0697 5.93935 39.1447 6.10177C39.2453 6.31963 39.5345 6.65351 39.7006 6.74335C39.7902 6.79185 39.7893 6.79897 39.6653 7.02639C39.4388 7.44196 39.5207 7.93325 39.8647 8.2222C40.0712 8.39563 40.0624 8.6052 39.8396 8.8194C39.431 9.21224 39.433 9.81605 39.8441 10.2031L40.0086 10.358L39.9963 16.3549L39.9841 22.3518L39.8412 22.5549C39.4347 23.1329 38.6089 23.1329 38.2023 22.555L38.0594 22.3518L38.036 17.3065C38.0148 12.7642 38.0047 12.2411 37.9349 12.0594C37.6107 11.2158 36.7247 10.8092 35.8901 11.1208C35.6652 11.2047 35.5233 11.3151 35.0666 11.7614L34.5148 12.3005L34.4094 12.2019C34.2595 12.0618 34.0529 11.9945 33.8851 12.031C33.7828 12.0533 33.5196 12.2805 32.9829 12.8099L32.2251 13.5573L32.1485 13.3271C32.1064 13.2006 32.0523 12.9255 32.0283 12.716C31.9781 12.2764 31.896 12.1231 31.6713 12.049L31.5109 11.9962V7.99314V3.99015H32.6104H33.71L33.8544 3.84595C34.0521 3.64857 34.055 3.39833 33.862 3.18254L33.7251 3.02949L32.9935 3.01449C32.5912 3.0062 32.262 2.99059 32.262 2.97972C32.262 2.96889 32.3391 2.85966 32.4334 2.73702C32.8193 2.23537 33.0108 1.61404 33.0123 0.859804C33.0131 0.36551 32.9506 0.190389 32.7329 0.0780151C32.5287 -0.0274231 27.4698 -0.0253143 27.2749 0.0802644Z" fill="white"/>
<path fill-rule="evenodd" clip-rule="evenodd" d="M3.27488 0.0802644C3.06599 0.193435 3.00426 0.371883 3.00515 0.859804C3.00656 1.61404 3.19813 2.23537 3.58396 2.73702C3.67827 2.85966 3.75544 2.96889 3.75544 2.97972C3.75544 2.99059 3.42623 3.0062 3.02388 3.01449L2.29227 3.02949L2.15543 3.18254C1.9624 3.39833 1.96527 3.64857 2.16299 3.84595L2.30744 3.99015H3.40698H4.50653V7.9968C4.50653 11.6383 4.49967 12.0034 4.43142 12.0034C4.39011 12.0034 4.28637 12.0733 4.20093 12.1586C4.08085 12.2784 4.03935 12.3663 4.01837 12.5452C3.8789 13.7334 3.56044 14.3095 2.60665 15.0991C1.82021 15.7501 1.39848 16.1925 0.934072 16.8536C0.344468 17.6929 0 18.7115 0 19.6157C0 19.9192 0.113649 20.5893 0.216689 20.8935C0.589041 21.9924 1.44261 22.8622 2.64392 23.3669C2.90901 23.4783 2.9798 23.5321 3.05514 23.6794C3.22442 24.0106 3.12589 24 6.0087 24C8.89152 24 8.79299 24.0106 8.96226 23.6794C9.03761 23.5321 9.1084 23.4783 9.37348 23.3669C10.3752 22.946 11.1837 22.228 11.5865 21.4014C12.1271 20.2921 12.1474 19.0397 11.6441 17.8588C11.3544 17.1794 10.8384 16.4485 10.1944 15.8056L9.80165 15.4136L10.6514 14.5609C11.4795 13.7297 11.501 13.7032 11.501 13.5135C11.501 13.3645 11.4684 13.2817 11.3618 13.1605L11.2226 13.0022L11.7071 12.5263L12.1916 12.0503H12.4378C12.6552 12.0503 12.7027 12.069 12.8436 12.2096L13.0032 12.369L13.0041 17.1652C13.0047 19.8031 13.0244 22.0945 13.0479 22.257C13.2088 23.3679 14.2465 24.142 15.3336 23.9622C16.1961 23.8195 16.8693 23.1289 16.9956 22.257C17.0195 22.0919 17.0389 19.3959 17.0394 16.1478L17.0403 10.3341L17.1757 10.2341C17.465 10.0206 17.5933 9.49477 17.443 9.1389C17.4063 9.05197 17.3007 8.9082 17.2083 8.8194C16.9855 8.6052 16.9767 8.39563 17.1832 8.2222C17.5207 7.93873 17.6111 7.42602 17.3913 7.04228L17.2741 6.83749L17.5342 6.588C17.8918 6.24507 18.0024 5.98972 18 5.51314C17.9978 5.09026 17.9041 4.82447 17.659 4.54583C17.5174 4.38481 17.5055 4.33448 17.2552 2.84068C17.0057 1.35124 16.9929 1.29693 16.859 1.16323C16.6638 0.968382 16.3841 0.968382 16.1889 1.16323C16.055 1.29693 16.0422 1.35124 15.7927 2.84068C15.5424 4.33448 15.5304 4.38481 15.3889 4.54583C15.1438 4.82447 15.0501 5.09026 15.0479 5.51314C15.0465 5.79801 15.0697 5.93935 15.1447 6.10177C15.2453 6.31963 15.5345 6.65351 15.7006 6.74335C15.7902 6.79185 15.7893 6.79897 15.6653 7.02639C15.4388 7.44196 15.5207 7.93325 15.8647 8.2222C16.0712 8.39563 16.0624 8.6052 15.8396 8.8194C15.431 9.21224 15.433 9.81605 15.8441 10.2031L16.0086 10.358L15.9963 16.3549L15.9841 22.3518L15.8412 22.5549C15.4347 23.1329 14.6089 23.1329 14.2023 22.555L14.0594 22.3518L14.036 17.3065C14.0148 12.7642 14.0047 12.2411 13.9349 12.0594C13.6107 11.2158 12.7247 10.8092 11.8901 11.1208C11.6652 11.2047 11.5233 11.3151 11.0666 11.7614L10.5148 12.3005L10.4094 12.2019C10.2595 12.0618 10.0529 11.9945 9.88507 12.031C9.78278 12.0533 9.51962 12.2805 8.98287 12.8099L8.22507 13.5573L8.14846 13.3271C8.10635 13.2006 8.05227 12.9255 8.02833 12.716C7.97815 12.2764 7.89605 12.1231 7.67133 12.049L7.51088 11.9962V7.99314V3.99015H8.61042H9.70997L9.85441 3.84595C10.0521 3.64857 10.055 3.39833 9.86197 3.18254L9.72513 3.02949L8.99353 3.01449C8.59118 3.0062 8.26197 2.99059 8.26197 2.97972C8.26197 2.96889 8.33914 2.85966 8.43345 2.73702C8.81927 2.23537 9.01085 1.61404 9.01226 0.859804C9.01315 0.36551 8.95057 0.190389 8.73295 0.0780151C8.5287 -0.0274231 3.46979 -0.0253143 3.27488 0.0802644Z" fill="white"/>
<path fill-rule="evenodd" clip-rule="evenodd" d="M51.2749 0.0802644C51.066 0.193435 51.0043 0.371883 51.0051 0.859804C51.0066 1.61404 51.1981 2.23537 51.584 2.73702C51.6783 2.85966 51.7554 2.96889 51.7554 2.97972C51.7554 2.99059 51.4262 3.0062 51.0239 3.01449L50.2923 3.02949L50.1554 3.18254C49.9624 3.39833 49.9653 3.64857 50.163 3.84595L50.3074 3.99015H51.407H52.5065V7.9968C52.5065 11.6383 52.4997 12.0034 52.4314 12.0034C52.3901 12.0034 52.2864 12.0733 52.2009 12.1586C52.0808 12.2784 52.0394 12.3663 52.0184 12.5452C51.8789 13.7334 51.5604 14.3095 50.6067 15.0991C49.8202 15.7501 49.3985 16.1925 48.9341 16.8536C48.3445 17.6929 48 18.7115 48 19.6157C48 19.9192 48.1136 20.5893 48.2167 20.8935C48.589 21.9924 49.4426 22.8622 50.6439 23.3669C50.909 23.4783 50.9798 23.5321 51.0551 23.6794C51.2244 24.0106 51.1259 24 54.0087 24C56.8915 24 56.793 24.0106 56.9623 23.6794C57.0376 23.5321 57.1084 23.4783 57.3735 23.3669C58.3752 22.946 59.1837 22.228 59.5865 21.4014C60.1271 20.2921 60.1474 19.0397 59.6441 17.8588C59.3544 17.1794 58.8384 16.4485 58.1944 15.8056L57.8017 15.4136L58.6514 14.5609C59.4795 13.7297 59.501 13.7032 59.501 13.5135C59.501 13.3645 59.4684 13.2817 59.3618 13.1605L59.2226 13.0022L59.7071 12.5263L60.1916 12.0503H60.4378C60.6552 12.0503 60.7027 12.069 60.8436 12.2096L61.0032 12.369L61.0041 17.1652C61.0047 19.8031 61.0244 22.0945 61.0479 22.257C61.2088 23.3679 62.2465 24.142 63.3336 23.9622C64.1961 23.8195 64.8693 23.1289 64.9956 22.257C65.0195 22.0919 65.0389 19.3959 65.0394 16.1478L65.0403 10.3341L65.1757 10.2341C65.465 10.0206 65.5933 9.49477 65.443 9.1389C65.4063 9.05197 65.3007 8.9082 65.2083 8.8194C64.9855 8.6052 64.9767 8.39563 65.1832 8.2222C65.5207 7.93873 65.6111 7.42602 65.3913 7.04228L65.2741 6.83749L65.5342 6.588C65.8918 6.24507 66.0024 5.98972 66 5.51314C65.9978 5.09026 65.9041 4.82447 65.659 4.54583C65.5174 4.38481 65.5055 4.33448 65.2552 2.84068C65.0057 1.35124 64.9929 1.29693 64.859 1.16323C64.6638 0.968382 64.3841 0.968382 64.1889 1.16323C64.055 1.29693 64.0422 1.35124 63.7927 2.84068C63.5424 4.33448 63.5304 4.38481 63.3889 4.54583C63.1438 4.82447 63.0501 5.09026 63.0479 5.51314C63.0465 5.79801 63.0697 5.93935 63.1447 6.10177C63.2453 6.31963 63.5345 6.65351 63.7006 6.74335C63.7902 6.79185 63.7893 6.79897 63.6653 7.02639C63.4388 7.44196 63.5207 7.93325 63.8647 8.2222C64.0712 8.39563 64.0624 8.6052 63.8396 8.8194C63.431 9.21224 63.433 9.81605 63.8441 10.2031L64.0086 10.358L63.9963 16.3549L63.9841 22.3518L63.8412 22.5549C63.4347 23.1329 62.6089 23.1329 62.2023 22.555L62.0594 22.3518L62.036 17.3065C62.0148 12.7642 62.0047 12.2411 61.9349 12.0594C61.6107 11.2158 60.7247 10.8092 59.8901 11.1208C59.6652 11.2047 59.5233 11.3151 59.0666 11.7614L58.5148 12.3005L58.4094 12.2019C58.2595 12.0618 58.0529 11.9945 57.8851 12.031C57.7828 12.0533 57.5196 12.2805 56.9829 12.8099L56.2251 13.5573L56.1485 13.3271C56.1064 13.2006 56.0523 12.9255 56.0283 12.716C55.9781 12.2764 55.896 12.1231 55.6713 12.049L55.5109 11.9962V7.99314V3.99015H56.6104H57.71L57.8544 3.84595C58.0521 3.64857 58.055 3.39833 57.862 3.18254L57.7251 3.02949L56.9935 3.01449C56.5912 3.0062 56.262 2.99059 56.262 2.97972C56.262 2.96889 56.3391 2.85966 56.4334 2.73702C56.8193 2.23537 57.0108 1.61404 57.0123 0.859804C57.0131 0.36551 56.9506 0.190389 56.7329 0.0780151C56.5287 -0.0274231 51.4698 -0.0253143 51.2749 0.0802644Z" fill="white"/>
</g>
</svg>
