<svg width="50" height="50" viewBox="0 0 50 50" fill="none" xmlns="http://www.w3.org/2000/svg">
<g filter="url(#filter0_d_303_40)">
<path d="M24.9999 18.8342C22.7062 18.8342 20.8343 20.7061 20.8343 22.9999C20.8343 25.2936 22.7062 27.1655 24.9999 27.1655C27.2937 27.1655 29.1655 25.2936 29.1655 22.9999C29.1655 20.7061 27.2937 18.8342 24.9999 18.8342ZM37.4937 22.9999C37.4937 21.2749 37.5093 19.5655 37.4124 17.8436C37.3155 15.8436 36.8593 14.0686 35.3968 12.6061C33.9312 11.1405 32.1593 10.6874 30.1593 10.5905C28.4343 10.4936 26.7249 10.5092 25.003 10.5092C23.278 10.5092 21.5687 10.4936 19.8468 10.5905C17.8468 10.6874 16.0718 11.1436 14.6093 12.6061C13.1437 14.0717 12.6905 15.8436 12.5937 17.8436C12.4968 19.5686 12.5124 21.278 12.5124 22.9999C12.5124 24.7217 12.4968 26.4342 12.5937 28.1561C12.6905 30.1561 13.1468 31.9311 14.6093 33.3936C16.0749 34.8592 17.8468 35.3124 19.8468 35.4092C21.5718 35.5061 23.2812 35.4905 25.003 35.4905C26.728 35.4905 28.4374 35.5061 30.1593 35.4092C32.1593 35.3124 33.9343 34.8561 35.3968 33.3936C36.8624 31.928 37.3155 30.1561 37.4124 28.1561C37.5124 26.4342 37.4937 24.7249 37.4937 22.9999ZM24.9999 29.4092C21.453 29.4092 18.5905 26.5467 18.5905 22.9999C18.5905 19.453 21.453 16.5905 24.9999 16.5905C28.5468 16.5905 31.4093 19.453 31.4093 22.9999C31.4093 26.5467 28.5468 29.4092 24.9999 29.4092ZM31.6718 17.8249C30.8437 17.8249 30.1749 17.1561 30.1749 16.328C30.1749 15.4999 30.8437 14.8311 31.6718 14.8311C32.4999 14.8311 33.1687 15.4999 33.1687 16.328C33.1689 16.5246 33.1304 16.7194 33.0552 16.9011C32.9801 17.0828 32.8698 17.2479 32.7308 17.387C32.5917 17.526 32.4266 17.6363 32.2449 17.7114C32.0632 17.7866 31.8684 17.8251 31.6718 17.8249Z" fill="url(#paint0_linear_303_40)"/>
</g>
<defs>
<filter id="filter0_d_303_40" x="0.511475" y="0.508301" width="48.9836" height="48.9829" filterUnits="userSpaceOnUse" color-interpolation-filters="sRGB">
<feFlood flood-opacity="0" result="BackgroundImageFix"/>
<feColorMatrix in="SourceAlpha" type="matrix" values="0 0 0 0 0 0 0 0 0 0 0 0 0 0 0 0 0 0 127 0" result="hardAlpha"/>
<feOffset dy="2"/>
<feGaussianBlur stdDeviation="6"/>
<feComposite in2="hardAlpha" operator="out"/>
<feColorMatrix type="matrix" values="0 0 0 0 0.513726 0 0 0 0 0.192157 0 0 0 0 0.854902 0 0 0 0.9 0"/>
<feBlend mode="normal" in2="BackgroundImageFix" result="effect1_dropShadow_303_40"/>
<feBlend mode="normal" in="SourceGraphic" in2="effect1_dropShadow_303_40" result="shape"/>
</filter>
<linearGradient id="paint0_linear_303_40" x1="25.0033" y1="10.5083" x2="25.0033" y2="35.4914" gradientUnits="userSpaceOnUse">
<stop stop-color="white"/>
<stop offset="1" stop-color="#8331DA"/>
</linearGradient>
</defs>
</svg>
