<svg width="24" height="24" viewBox="0 0 24 24" fill="none" xmlns="http://www.w3.org/2000/svg">
<path fill-rule="evenodd" clip-rule="evenodd" d="M4.91147 4.04013C4.67309 4.10498 4.53223 4.18591 4.35982 4.3571C4.19158 4.52419 4.07725 4.738 4.02705 4.97957C4.0053 5.08429 3.99717 5.97108 4.00296 7.60841C4.01163 10.0636 4.01213 10.0803 4.07972 10.2452C4.21114 10.5657 4.46407 10.8187 4.7846 10.9501C4.95034 11.018 4.95375 11.0181 7.51681 11.0181C10.0799 11.0181 10.0833 11.018 10.249 10.9501C10.5696 10.8187 10.8225 10.5657 10.9539 10.2452C11.0218 10.0795 11.0219 10.0761 11.0219 7.51299C11.0219 4.94993 11.0218 4.94652 10.9539 4.78078C10.8225 4.46025 10.5696 4.20732 10.249 4.0759C10.0838 4.00818 10.0711 4.00784 7.5794 4.00164C5.49317 3.99648 5.04836 4.00289 4.91147 4.04013ZM13.8863 4.04195C13.4542 4.15918 13.1373 4.48272 13.025 4.92117C12.9819 5.08932 12.9769 5.4215 12.9847 7.59621C12.9935 10.0637 12.994 10.0803 13.0616 10.2452C13.193 10.5657 13.446 10.8187 13.7665 10.9501C13.9322 11.018 13.9356 11.0181 16.4987 11.0181C19.0618 11.0181 19.0652 11.018 19.2309 10.9501C19.5514 10.8187 19.8044 10.5657 19.9358 10.2452C20.0037 10.0795 20.0038 10.0761 20.0038 7.51299V4.94674L19.9219 4.75233C19.7909 4.44147 19.5702 4.22084 19.2594 4.0898L19.0649 4.00787L16.5613 4.00164C14.4302 3.99635 14.0321 4.00236 13.8863 4.04195ZM4.90437 13.0237C4.47242 13.1412 4.15537 13.4647 4.04323 13.9024C4.00039 14.0696 3.99532 14.4061 4.00296 16.5774L4.01169 19.0611L4.09362 19.2555C4.22466 19.5664 4.44529 19.787 4.75615 19.9181L4.95056 20H7.51681C10.0799 20 10.0833 19.9999 10.249 19.932C10.5696 19.8006 10.8225 19.5476 10.9539 19.2271C11.0218 19.0613 11.0219 19.0579 11.0219 16.4949C11.0219 13.9318 11.0218 13.9284 10.9539 13.7627C10.8225 13.4421 10.5696 13.1892 10.249 13.0578C10.0838 12.9901 10.071 12.9897 7.5794 12.9834C5.44591 12.9781 5.05039 12.984 4.90437 13.0237ZM13.9495 13.0078C13.4811 13.1012 13.0974 13.4975 13.0086 13.9798C12.9874 14.0947 12.9791 15.0095 12.9848 16.6086C12.9935 19.0449 12.994 19.0622 13.0616 19.2271C13.193 19.5476 13.446 19.8006 13.7665 19.932C13.9322 19.9999 13.9356 20 16.4987 20H19.0649L19.2594 19.9181C19.5702 19.787 19.7909 19.5664 19.9219 19.2555L20.0038 19.0611V16.4949C20.0038 13.9318 20.0037 13.9284 19.9358 13.7627C19.8044 13.4421 19.5514 13.1892 19.2309 13.0578C19.0657 12.99 19.0542 12.9897 16.5769 12.9849C15.2085 12.9822 14.0262 12.9926 13.9495 13.0078Z" fill="#F18D1E"/>
</svg>
