<svg width="24" height="24" viewBox="0 0 24 24" fill="none" xmlns="http://www.w3.org/2000/svg">
<path fill-rule="evenodd" clip-rule="evenodd" d="M11.2331 3.04499C10.2724 3.196 9.41413 3.65113 8.74139 4.36626C8.0034 5.15075 7.62095 6.05665 7.56836 7.14476C7.49491 8.66451 8.24071 10.1173 9.52656 10.9594C10.159 11.3735 10.769 11.5838 11.5079 11.6423C12.8774 11.7508 14.0452 11.3204 14.9879 10.3596C15.7342 9.599 16.1159 8.77145 16.2088 7.71228C16.3329 6.29744 15.8006 4.97976 14.7333 4.06042C14.0449 3.46747 13.4098 3.17462 12.5347 3.04657C12.1142 2.98504 11.6183 2.98445 11.2331 3.04499ZM8.03819 11.7211C6.44739 11.8891 5.34503 13.0306 4.83098 15.0421C4.48821 16.3835 4.40005 17.9953 4.62125 18.8765C4.79897 19.5844 5.38503 20.3028 6.06388 20.6448C6.37225 20.8002 6.81278 20.929 7.18011 20.9713C7.39775 20.9963 9.05915 21.0049 12.2357 20.9974L16.967 20.9861L17.2661 20.9041C18.3761 20.5994 19.1379 19.8557 19.4152 18.8061C19.5596 18.2594 19.5411 16.9584 19.3743 15.9304C19.0034 13.6451 18.0679 12.2731 16.588 11.8442C16.2496 11.7462 15.6443 11.6716 15.4649 11.7059C15.2932 11.7387 15.0532 11.8669 14.5115 12.2152C13.9345 12.5863 13.8545 12.6285 13.4223 12.7904C12.9219 12.9778 12.5088 13.0569 12.0295 13.057C11.534 13.057 11.1552 12.9891 10.6555 12.8109C10.1836 12.6426 10.1632 12.6318 9.42623 12.1638C9.03763 11.917 8.75012 11.7589 8.63586 11.7293C8.44059 11.6786 8.44063 11.6786 8.03819 11.7211Z" fill="#F18D1E"/>
</svg>
