<svg width="24" height="24" viewBox="0 0 24 24" fill="none" xmlns="http://www.w3.org/2000/svg">
<path fill-rule="evenodd" clip-rule="evenodd" d="M12.315 3.03105C11.9479 3.10312 11.7607 3.23336 11.0504 3.91098C10.6026 4.3381 10.3256 4.57604 10.2376 4.60898C10.1163 4.65437 10.0301 4.64867 9.29846 4.54676C8.85536 4.48503 8.38794 4.43312 8.25974 4.4314C7.73404 4.42436 7.25244 4.67792 6.9601 5.11567C6.78203 5.38235 6.74543 5.51246 6.57517 6.48393C6.49743 6.92752 6.4097 7.33712 6.38017 7.39416C6.31514 7.51994 6.22304 7.57874 5.50154 7.95498C4.51927 8.46716 4.34932 8.60195 4.14796 9.02837C4.03503 9.26753 4.00093 9.43511 4.00001 9.75578C3.99913 10.054 4.05234 10.2 4.48798 11.0948C4.77423 11.6827 4.8601 11.8921 4.8601 12.0021C4.8601 12.1121 4.77423 12.3214 4.48798 12.9094C4.05234 13.8041 3.99913 13.9502 4.00001 14.2484C4.00093 14.569 4.03503 14.7366 4.14796 14.9758C4.34932 15.4022 4.51927 15.537 5.50154 16.0492C6.22304 16.4254 6.31514 16.4842 6.38017 16.61C6.4097 16.667 6.49757 17.0775 6.57549 17.5221C6.6534 17.9667 6.73899 18.4029 6.76563 18.4915C6.95626 19.1249 7.54626 19.5665 8.21131 19.5736C8.3468 19.575 8.82808 19.5242 9.28086 19.4607C10.0294 19.3557 10.1161 19.3497 10.2376 19.3952C10.3256 19.4281 10.6026 19.666 11.0504 20.0932C11.5908 20.6087 11.7742 20.762 11.9473 20.843C12.3945 21.0523 12.8613 21.0523 13.3085 20.843C13.4816 20.762 13.665 20.6087 14.2054 20.0932C14.6531 19.666 14.9302 19.4281 15.0182 19.3952C15.1395 19.3498 15.2257 19.3555 15.9573 19.4574C16.4004 19.5191 16.8678 19.571 16.996 19.5728C17.5217 19.5798 18.0033 19.3262 18.2957 18.8885C18.4737 18.6218 18.5103 18.4917 18.6806 17.5202C18.7583 17.0766 18.8461 16.667 18.8756 16.61C18.9413 16.4829 19.0202 16.4333 19.847 15.9987C20.6261 15.5891 20.7987 15.466 20.9875 15.1852C21.1738 14.9081 21.2529 14.648 21.2557 14.3031C21.2586 13.9463 21.2228 13.8439 20.7678 12.9094C20.4815 12.3214 20.3957 12.1121 20.3957 12.0021C20.3957 11.8921 20.4815 11.6827 20.7678 11.0948C21.2228 10.1602 21.2586 10.0579 21.2557 9.70106C21.2529 9.35614 21.1738 9.09604 20.9875 8.81897C20.7987 8.53818 20.6261 8.41504 19.847 8.00548C19.0202 7.5709 18.9413 7.52121 18.8756 7.39416C18.8461 7.33712 18.7583 6.92752 18.6806 6.48393C18.5103 5.51246 18.4737 5.38235 18.2957 5.11567C18.0033 4.67792 17.5217 4.42436 16.996 4.4314C16.8678 4.43312 16.4004 4.48503 15.9573 4.54676C15.2257 4.64867 15.1395 4.65437 15.0182 4.60898C14.9302 4.57604 14.6531 4.3381 14.2054 3.91098C13.6732 3.40327 13.4802 3.24149 13.3144 3.16386C12.9761 3.0056 12.6591 2.96344 12.315 3.03105ZM10.9477 7.37319C11.7605 7.54542 12.3788 8.26192 12.4426 9.10572C12.5099 9.9947 11.8964 10.8415 11.0195 11.0699C10.3772 11.2372 9.69838 11.0457 9.21308 10.5604C8.63615 9.98351 8.48771 9.15323 8.83118 8.42444C9.20805 7.62478 10.0834 7.19002 10.9477 7.37319ZM16.3145 8.1308C16.5422 8.26959 16.6358 8.57267 16.5188 8.79258C16.4577 8.90762 9.51049 15.8496 9.40136 15.9047C9.28199 15.965 9.0676 15.9504 8.94122 15.8734C8.71353 15.7346 8.61999 15.4315 8.73694 15.2116C8.79384 15.1045 15.7384 8.16032 15.8479 8.10092C15.9607 8.03976 16.1892 8.0544 16.3145 8.1308ZM10.1806 8.45872C9.87251 8.6055 9.70084 8.87644 9.69764 9.22101C9.6931 9.71007 10.0617 10.0815 10.5516 10.0815C11.415 10.0815 11.7304 8.9571 10.9945 8.50218C10.7562 8.35487 10.4347 8.33769 10.1806 8.45872ZM15.1993 12.9386C15.6957 13.086 16.1768 13.4734 16.3915 13.8986C16.7553 14.6193 16.6378 15.4928 16.1017 16.0537C15.4898 16.6938 14.6473 16.853 13.8772 16.4739C13.2595 16.1699 12.8652 15.586 12.8131 14.8984C12.7466 14.019 13.3565 13.1689 14.2212 12.936C14.4754 12.8676 14.9643 12.8688 15.1993 12.9386ZM14.5106 13.9337C13.7658 14.1268 13.6105 15.0997 14.2604 15.5014C14.494 15.6459 14.7927 15.6664 15.0501 15.5557C15.7119 15.271 15.7349 14.3363 15.0881 14.0064C14.9384 13.93 14.66 13.8949 14.5106 13.9337Z" fill="#F18D1E"/>
</svg>
