<svg width="22" height="22" viewBox="0 0 22 22" fill="none" xmlns="http://www.w3.org/2000/svg">
<path fill-rule="evenodd" clip-rule="evenodd" d="M6.66593 0.833886C6.48152 1.10909 6.33067 1.3466 6.33067 1.36168C6.33067 1.37676 6.39373 1.45892 6.47082 1.54422C6.67051 1.76528 6.73369 2.0514 6.64794 2.34638C6.59055 2.54375 6.53628 2.61255 6.1735 2.94814C5.88597 3.21414 5.72462 3.40072 5.63209 3.57426C5.16689 4.4471 5.33323 5.48674 6.04327 6.14409L6.29919 6.38107L6.6424 5.86835L6.98561 5.35567L6.86117 5.21295C6.69442 5.02166 6.6222 4.83638 6.6222 4.5997C6.6222 4.30109 6.75393 4.07515 7.07957 3.81536C7.66305 3.34978 7.92763 2.81687 7.92763 2.1072C7.92763 1.7308 7.86591 1.44402 7.72485 1.16506C7.6089 0.935796 7.34861 0.608658 7.1689 0.46635L7.00115 0.333496L6.66593 0.833886ZM9.78946 0.833886C9.60505 1.10909 9.4542 1.3466 9.4542 1.36168C9.4542 1.37676 9.51726 1.45892 9.59435 1.54422C9.79404 1.76528 9.85722 2.0514 9.77147 2.34638C9.71408 2.54375 9.65981 2.61255 9.29703 2.94814C9.0095 3.21414 8.84815 3.40072 8.75561 3.57426C8.29042 4.4471 8.45676 5.48674 9.1668 6.14409L9.42272 6.38107L9.76593 5.86835L10.1091 5.35567L9.9847 5.21295C9.81795 5.02166 9.74573 4.83638 9.74573 4.5997C9.74573 4.30109 9.87746 4.07515 10.2031 3.81536C10.7866 3.34978 11.0512 2.81687 11.0512 2.1072C11.0512 1.7308 10.9894 1.44402 10.8484 1.16506C10.7324 0.935796 10.4721 0.608658 10.2924 0.46635L10.1247 0.333496L9.78946 0.833886ZM12.913 0.833886C12.7286 1.10909 12.5777 1.3466 12.5777 1.36168C12.5777 1.37676 12.6408 1.45892 12.7179 1.54422C12.9176 1.76528 12.9808 2.0514 12.895 2.34638C12.8376 2.54375 12.7833 2.61255 12.4206 2.94814C12.133 3.21414 11.9717 3.40072 11.8791 3.57426C11.4139 4.4471 11.5803 5.48674 12.2903 6.14409L12.5462 6.38107L12.8895 5.86835L13.2327 5.35567L13.1082 5.21295C12.9415 5.02166 12.8693 4.83638 12.8693 4.5997C12.8693 4.30109 13.001 4.07515 13.3266 3.81536C13.9101 3.34978 14.1747 2.81687 14.1747 2.1072C14.1747 1.7308 14.113 1.44402 13.9719 1.16506C13.856 0.935796 13.5957 0.608658 13.416 0.46635L13.2482 0.333496L12.913 0.833886ZM1.58291 9.64695C1.58291 10.6214 1.60282 11.6006 1.62714 11.823C1.88664 14.1966 3.10602 16.2819 5.04794 17.6728L5.38229 17.9123H9.72224H14.0622L14.3716 17.6998C14.7408 17.4461 14.9556 17.2769 15.3535 16.9256L15.6512 16.6629H16.6157C17.1462 16.6629 17.715 16.6427 17.8797 16.6181C19.8244 16.3273 21.3213 14.8304 21.612 12.8858C21.6384 12.7091 21.6568 11.8766 21.6568 10.8555V9.12473H19.7827H17.9086V8.50003V7.87532H9.74573H1.58291V9.64695ZM20.3963 11.6131C20.3769 12.9162 20.3664 12.9991 20.1566 13.4977C19.8569 14.2103 19.2089 14.858 18.4916 15.162C18.0847 15.3344 17.8577 15.3773 17.225 15.4015L16.6038 15.4252L16.737 15.2007C17.4996 13.9149 17.9086 12.4159 17.9086 10.9064V10.3741H19.1617H20.4148L20.3963 11.6131ZM0.334204 19.2762C0.334621 19.3392 0.362482 19.5219 0.396133 19.6823C0.592957 20.6197 1.37434 21.401 2.31173 21.5979C2.74978 21.6898 16.7417 21.6898 17.1797 21.5979C18.1171 21.401 18.8985 20.6197 19.0953 19.6823C19.129 19.5219 19.1568 19.3392 19.1573 19.2762L19.158 19.1617H9.74573H0.333496L0.334204 19.2762Z" fill="white"/>
</svg>
