<svg width="16" height="22" viewBox="0 0 16 22" fill="none" xmlns="http://www.w3.org/2000/svg">
<path fill-rule="evenodd" clip-rule="evenodd" d="M7.37206 0.346713C6.88983 0.423805 6.35477 0.645657 5.97052 0.927716C5.70072 1.12576 5.27152 1.59528 5.10721 1.87208C4.96115 2.1182 4.79242 2.5652 4.74255 2.83804C4.71391 2.99485 4.71645 2.99977 4.81247 2.9728C4.86726 2.95737 5.09974 2.91518 5.32906 2.87903C5.87904 2.79239 6.34159 2.82474 7.26782 3.01466L7.99746 3.1643L8.33101 3.05835C8.51447 3.00006 8.77714 2.92856 8.91473 2.89946C9.27354 2.82357 10.1805 2.83371 10.5588 2.9178C10.7292 2.9557 10.8784 2.97701 10.8903 2.96512C10.9378 2.91759 10.8027 2.4475 10.6511 2.13329C10.2411 1.28353 9.50198 0.660625 8.62287 0.424138C8.37196 0.356636 7.60633 0.30923 7.37206 0.346713ZM13.4279 1.97715C12.6311 2.77417 11.9792 3.43706 11.9792 3.45027C11.9792 3.46349 12.0688 3.53233 12.1782 3.60325C12.2876 3.67417 12.505 3.84924 12.6612 3.99238L12.9451 4.25259L14.3692 2.82845L15.7934 1.40432L15.3567 0.966199C15.1166 0.725251 14.9103 0.528081 14.8983 0.528081C14.8863 0.528081 14.2246 1.18017 13.4279 1.97715ZM5.5374 4.11546C5.16758 4.16069 4.72613 4.3095 4.36218 4.51159C4.01145 4.70638 3.46593 5.24315 3.24483 5.6111C3.07889 5.88728 2.83652 6.52089 2.87375 6.58118C2.88539 6.59999 3.44596 6.61537 4.11944 6.61537H5.34399L5.39131 6.37563C5.53565 5.64453 5.90502 4.89146 6.37649 4.36704C6.53201 4.19409 6.54944 4.1584 6.48711 4.14072C6.32671 4.09523 5.81429 4.0816 5.5374 4.11546ZM9.31048 4.11354C8.20823 4.24783 7.20365 5.02346 6.78722 6.06172C6.73406 6.19427 6.67802 6.37105 6.66268 6.45464L6.63478 6.60658L7.14933 6.62179C7.62259 6.63576 7.68568 6.64735 7.93492 6.76647C8.42437 7.00033 8.75842 7.34877 8.93962 7.81449C9.01558 8.00961 9.03726 8.17068 9.05715 8.68664C9.07837 9.23783 9.09259 9.33431 9.16747 9.43454C9.38441 9.72498 9.68106 9.81049 9.96649 9.66486C10.2498 9.5203 10.3115 9.37229 10.3115 8.83632C10.3115 8.27891 10.3591 8.00915 10.5172 7.67127C10.7342 7.20747 11.1481 6.8504 11.6495 6.69438C11.8301 6.63814 12.0284 6.61537 12.3373 6.61537C12.5761 6.61537 12.7714 6.60003 12.7714 6.58127C12.7714 6.4722 12.6157 6.05076 12.475 5.7792C11.8799 4.62992 10.6003 3.95639 9.31048 4.11354ZM0.889798 8.66879C0.892049 10.2557 0.992114 11.1115 1.27125 11.9313C2.06644 14.2665 4.08154 16.0431 6.44704 16.4947C6.68065 16.5393 6.94211 16.587 7.02808 16.6007L7.18443 16.6257V17.8954V19.1652H6.81795C6.16148 19.1652 5.71498 19.3414 5.28699 19.7694C4.859 20.1974 4.68281 20.6439 4.68281 21.3003V21.6668H7.81422H10.9457L10.9307 21.1769C10.9164 20.7125 10.9076 20.6701 10.7606 20.362C10.389 19.5827 9.70566 19.1652 8.80174 19.1652H8.43525V17.8954V16.6257L8.5916 16.6017C9.50953 16.4609 10.1154 16.2832 10.81 15.9514C12.5819 15.105 13.9511 13.4674 14.4662 11.5785C14.6654 10.8481 14.6934 10.582 14.7178 9.18834L14.741 7.86293L13.342 7.87498L11.9429 7.88703L11.8115 8.01211C11.7393 8.08091 11.6597 8.17472 11.6347 8.22058C11.6096 8.26645 11.5777 8.59733 11.5636 8.95585C11.5383 9.60031 11.5363 9.61124 11.3847 9.9179C10.984 10.7287 10.0982 11.1503 9.25632 10.931C8.90113 10.8385 8.61424 10.6773 8.37 10.4331C7.96494 10.0281 7.80984 9.58305 7.80984 8.82614C7.80984 8.27991 7.75701 8.12315 7.51803 7.96L7.38056 7.86619H4.13462H0.888672L0.889798 8.66879Z" fill="white"/>
</svg>
