<svg width="15" height="22" viewBox="0 0 15 22" fill="none" xmlns="http://www.w3.org/2000/svg">
<path fill-rule="evenodd" clip-rule="evenodd" d="M10.7626 0.770946C9.78879 1.00934 8.55612 1.30997 8.02335 1.43908L7.0547 1.67385V3.1682V4.6625H3.97168H0.888672V6.204V7.74551H7.76296H14.6372V6.204V4.6625H11.5542H8.47122V3.72705V2.79161L8.60874 2.75366C8.68436 2.73274 9.68267 2.48493 10.8273 2.20292C11.9718 1.92091 12.9169 1.68314 12.9275 1.67456C12.9382 1.66598 12.8929 1.44887 12.827 1.19219C12.6518 0.510306 12.5961 0.329158 12.5629 0.333574C12.5466 0.335782 11.7365 0.532595 10.7626 0.770946ZM1.84691 8.93822C1.84691 9.11445 3.48973 20.5301 3.5369 20.6817C3.67155 21.1142 4.03522 21.4647 4.48963 21.5997C4.78652 21.6879 10.6289 21.6898 10.9595 21.6018C11.422 21.4787 11.7978 21.1092 11.9355 20.6424C11.973 20.5152 13.5953 9.12303 13.5956 8.98496C13.5957 8.91589 13.2882 8.91206 7.72129 8.91206C4.49038 8.91206 1.84691 8.9238 1.84691 8.93822Z" fill="white"/>
</svg>
