<svg width="22" height="22" viewBox="0 0 22 22" fill="none" xmlns="http://www.w3.org/2000/svg">
<path fill-rule="evenodd" clip-rule="evenodd" d="M9.13408 0.802351C9.14896 1.23953 9.15946 1.28871 9.28937 1.53001C9.55468 2.02283 10.0119 2.44643 11.4141 3.4987C12.2044 4.09167 12.6023 4.41682 12.7622 4.6002C12.8675 4.72089 12.8758 4.75748 12.8768 5.10539L12.8778 5.48048L12.6382 5.60455C12.3324 5.76292 12.0143 6.08103 11.8559 6.38685L11.7319 6.62636L11.2196 6.62648C10.4454 6.62661 9.87183 6.77068 9.36072 7.09338C9.05807 7.28446 8.57408 7.76182 8.37812 8.06255C7.69164 9.11625 7.72077 10.497 8.45218 11.574C8.69961 11.9384 9.19305 12.3796 9.57343 12.5766C10.185 12.8934 9.98444 12.878 13.4898 12.878H16.6288V11.6277V10.3774H15.3785H14.1282L14.1283 9.70017L14.1284 9.02293L14.368 8.89886C14.677 8.73883 14.9936 8.42038 15.1503 8.1119L15.2743 7.86768L15.6911 7.89347C16.9054 7.96866 18.06 8.48756 18.9343 9.35105C20.9417 11.3339 20.8961 14.5389 18.8327 16.48C18.6482 16.6535 18.4814 16.7955 18.462 16.7955C18.4426 16.7955 18.3176 16.6805 18.1842 16.5399C18.0507 16.3992 17.5665 15.9708 17.1081 15.5878C16.3272 14.9354 15.6286 14.2661 15.6286 14.1704C15.6286 14.1425 14.9077 14.1282 13.5031 14.1282C12.0814 14.1282 11.3776 14.1424 11.3776 14.1709C11.3776 14.2568 10.6744 14.9436 10.1065 15.4124C9.28074 16.0939 8.83802 16.5029 8.56642 16.8348C8.33616 17.1163 8.00187 17.6989 8.00187 17.8188C8.00187 17.8691 7.87922 17.8791 7.25883 17.8791H6.51579L6.41489 17.6618C6.14483 17.0802 5.41867 16.6298 4.75115 16.6298C4.08362 16.6298 3.35746 17.0802 3.0874 17.6618L2.9865 17.8791H1.66H0.333496V18.5042V19.1294H1.66H2.9865L3.0874 19.3467C3.35746 19.9282 4.08362 20.3786 4.75115 20.3786C5.41867 20.3786 6.14483 19.9282 6.41489 19.3467L6.51579 19.1294H7.23337H7.9509L7.97741 19.2705C8.06393 19.7317 8.5197 20.4932 8.92166 20.8482C9.22002 21.1117 9.59906 21.3476 9.91538 21.4666C10.4544 21.6694 10.5855 21.6762 13.676 21.6624L16.5663 21.6494L16.858 21.5522C17.4889 21.342 18.0042 20.9961 18.3979 20.5188C18.657 20.2047 18.9255 19.6889 19.0235 19.3169C19.115 18.9694 19.1471 18.4436 19.0936 18.1708L19.0486 17.9416L19.2036 17.8166C19.724 17.3967 20.3893 16.6643 20.7215 16.1454C20.9204 15.8349 21.2144 15.213 21.3411 14.8349C21.5813 14.1178 21.6435 13.7235 21.6462 12.8988C21.6491 12.0704 21.5974 11.712 21.3728 11.004C20.5896 8.53558 18.3241 6.78952 15.7103 6.63999L15.2687 6.61469L15.1475 6.38101C14.9915 6.08044 14.6717 5.76183 14.368 5.60455L14.1284 5.48048L14.1283 5.10573L14.1282 4.73094L14.4315 4.43829C14.5983 4.27733 15.0812 3.88466 15.5047 3.56572C17.0154 2.4278 17.4476 2.03004 17.7168 1.53001C17.8467 1.28871 17.8572 1.23953 17.8721 0.802351L17.8881 0.333496H13.5031H9.11812L9.13408 0.802351ZM11.8559 8.11657C12.0143 8.42238 12.3324 8.7405 12.6382 8.89886L12.8778 9.02293L12.8779 9.70017L12.878 10.3774H11.6277H10.3774V10.9824V11.5874L10.1609 11.4777C9.89309 11.342 9.51842 10.9683 9.36797 10.6868C8.95988 9.92347 9.08549 9.04031 9.68791 8.43743C10.1033 8.02167 10.4845 7.88601 11.2526 7.88047L11.7319 7.87705L11.8559 8.11657Z" fill="white"/>
</svg>
