<svg width="22" height="22" viewBox="0 0 22 22" fill="none" xmlns="http://www.w3.org/2000/svg">
<path fill-rule="evenodd" clip-rule="evenodd" d="M0.656893 0.417996C0.561678 0.468291 0.468505 0.564131 0.417293 0.664512C0.340205 0.815606 0.333496 0.909195 0.333496 1.83051V2.83224H8.04234H15.7512V1.83051C15.7512 0.908779 15.7445 0.815647 15.6673 0.664346C15.6133 0.558464 15.5248 0.469958 15.4189 0.415954C15.2559 0.332823 15.1902 0.332073 8.03359 0.333907C0.926577 0.33574 0.810236 0.337074 0.656893 0.417996ZM0.625182 4.1047C0.625182 4.11703 0.840822 4.49256 1.10438 4.93921L1.58358 5.75135V10.9995V16.2476L1.10438 17.0597C0.840822 17.5063 0.625182 17.8819 0.625182 17.8942C0.625182 17.9065 3.11439 17.9166 6.1568 17.9166H11.6884L11.6913 17.1769C11.6937 16.5578 11.7085 16.3853 11.7824 16.1179L11.8707 15.7985L11.7828 15.3887C11.6518 14.7782 11.6517 13.7013 11.7825 13.2072L11.8765 12.8523L11.7961 12.478C11.7519 12.2721 11.7028 11.9591 11.6869 11.7825L11.6581 11.4613L11.4649 11.8453C10.3737 14.0144 7.9545 14.764 6.07596 13.5152C4.89497 12.7301 4.17546 11.3839 4.09558 9.81004C4.02987 8.51554 4.51377 7.81086 5.4165 7.88654C5.59351 7.90141 5.99633 8.00821 6.5247 8.18047C7.92188 8.63592 8.16281 8.63592 9.55999 8.18047C10.0884 8.00821 10.4912 7.90141 10.6682 7.88654C11.1633 7.84503 11.54 8.0393 11.7646 8.45195C11.8948 8.69105 11.9991 9.12712 12.0002 9.43631L12.0009 9.64407L12.1502 9.42247C12.6035 8.74939 13.245 8.39361 14.0948 8.34415L14.5011 8.32048V7.03594V5.75135L14.9803 4.93921C15.2439 4.49256 15.4595 4.11703 15.4595 4.1047C15.4595 4.09241 12.1218 4.08232 8.04234 4.08232C3.9629 4.08232 0.625182 4.09241 0.625182 4.1047ZM5.36008 9.21808C5.31466 9.38759 5.3327 9.89863 5.39717 10.2682C5.6036 11.4521 6.35694 12.424 7.32604 12.7568C7.72545 12.894 8.36295 12.8927 8.76752 12.7539C9.4161 12.5313 10.0161 11.9716 10.3579 11.2703C10.6291 10.7138 10.7177 10.3341 10.7244 9.70107C10.7275 9.41097 10.7192 9.16262 10.7059 9.1492C10.6927 9.13579 10.3458 9.2365 9.93505 9.37301C8.93315 9.70595 8.67297 9.75904 8.04234 9.75904C7.41063 9.75904 7.14832 9.70541 6.15263 9.3728C5.74356 9.23613 5.40354 9.12433 5.39704 9.12433C5.39054 9.12433 5.37391 9.1665 5.36008 9.21808ZM13.7914 9.6467C13.2332 9.81879 12.92 10.409 12.9185 11.2911C12.9152 13.3903 14.3171 15.2136 16.3218 15.7174C16.8713 15.8556 17.7823 15.8467 18.3397 15.6978C20.0497 15.2408 21.3149 13.8224 21.6043 12.0377C21.8119 10.7573 21.5025 9.85971 20.7795 9.64499C20.3824 9.52706 20.0362 9.57557 19.0043 9.89363C18.1191 10.1665 17.8405 10.2196 17.293 10.2196C16.7454 10.2196 16.4669 10.1665 15.5816 9.89363C14.5575 9.57794 14.1823 9.52619 13.7914 9.6467ZM13.0192 15.1914C13.0356 15.2808 13.0958 15.4945 13.1531 15.6664C13.6502 17.1599 14.8218 18.2573 16.3218 18.6343C16.8713 18.7724 17.7823 18.7636 18.3397 18.6146C19.5742 18.2847 20.5925 17.4533 21.1648 16.3077C21.3376 15.9618 21.5165 15.4649 21.5667 15.1914L21.5965 15.0289L21.295 15.3464C20.5318 16.1498 19.5129 16.7228 18.418 16.9643C17.8014 17.1003 16.8018 17.0999 16.1679 16.9633C15.0861 16.7303 14.0551 16.1508 13.2909 15.3464L12.9894 15.0289L13.0192 15.1914ZM13.0192 18.1083C13.0356 18.1976 13.0958 18.4114 13.1531 18.5833C13.6502 20.0768 14.8218 21.1742 16.3218 21.5512C16.8713 21.6893 17.7823 21.6804 18.3397 21.5315C19.5742 21.2016 20.5925 20.3702 21.1648 19.2246C21.3376 18.8786 21.5165 18.3817 21.5667 18.1083L21.5965 17.9458L21.295 18.2632C20.5318 19.0666 19.5129 19.6397 18.418 19.8812C17.8014 20.0172 16.8018 20.0168 16.1679 19.8802C15.0861 19.6472 14.0551 19.0677 13.2909 18.2632L12.9894 17.9458L13.0192 18.1083ZM0.333496 20.1684C0.333496 21.0901 0.340205 21.1833 0.417377 21.3346C0.47138 21.4404 0.559886 21.5289 0.665768 21.5829C0.828487 21.666 0.897993 21.6668 7.311 21.6668H13.7918L13.4596 21.3494C12.9092 20.8236 12.4029 20.0946 12.1475 19.4602L12.0294 19.1667H6.18143H0.333496V20.1684Z" fill="white"/>
</svg>
