<svg width="20" height="22" viewBox="0 0 20 22" fill="none" xmlns="http://www.w3.org/2000/svg">
<path fill-rule="evenodd" clip-rule="evenodd" d="M9.93343 0.408337C9.61525 0.577638 9.10426 1.42739 9.00736 1.94843C8.89266 2.56532 9.15607 3.22965 9.81027 3.97337C10.0446 4.23978 10.2244 4.57476 10.2244 4.74506C10.2244 4.89823 10.0467 5.25355 9.87516 5.4434C9.71228 5.6237 9.59945 5.85452 9.60091 6.00452C9.60279 6.20117 9.75392 6.4457 9.92864 6.53481C10.1395 6.64238 10.3087 6.64351 10.5141 6.53873C10.858 6.36326 11.3533 5.55768 11.4445 5.02548C11.5395 4.47073 11.3088 3.80061 10.8315 3.24461C10.5057 2.8652 10.2735 2.50943 10.242 2.34171C10.1996 2.11556 10.3528 1.78408 10.7004 1.34983C10.9465 1.04236 10.8695 0.614232 10.5334 0.421507C10.3368 0.308807 10.1291 0.304264 9.93343 0.408337ZM6.17605 1.70319C6.0924 1.74737 5.92789 1.91066 5.81052 2.066C4.97556 3.17121 5.04654 4.07261 6.05914 5.22375C6.2935 5.49016 6.47322 5.82514 6.47322 5.99544C6.47322 6.14861 6.29554 6.50392 6.12403 6.69377C5.96115 6.87408 5.84832 7.1049 5.84978 7.2549C5.85166 7.45154 6.00279 7.69608 6.17751 7.78519C6.38836 7.89276 6.55754 7.89389 6.76293 7.7891C7.10687 7.61363 7.60219 6.80806 7.69334 6.27586C7.78891 5.71798 7.56017 5.0582 7.07061 4.47952C6.57571 3.89455 6.44396 3.64727 6.49173 3.39274C6.51711 3.25749 6.73492 2.9005 6.95795 2.62867C7.19602 2.3385 7.11241 1.90283 6.78231 1.71356C6.58417 1.59999 6.37807 1.59644 6.17605 1.70319ZM1.19955 9.18002C0.853275 9.33086 0.732864 9.73848 0.936925 10.069C1.04392 10.2424 1.08118 10.5261 1.13819 11.6013C1.23285 13.3876 1.35693 14.3548 1.62121 15.3673C1.86358 16.2957 2.20231 17.0777 2.67103 17.7907C2.9622 18.2336 3.71651 18.9957 4.15202 19.2871C5.03775 19.8795 6.11378 20.2438 7.34932 20.3694C7.57659 20.3925 6.45075 20.4074 4.2082 20.4109L0.712816 20.4165L0.55085 20.5075C0.380216 20.6034 0.222168 20.8603 0.222168 21.0416C0.222168 21.223 0.380216 21.4799 0.55085 21.5758L0.712816 21.6668L8.35529 21.6662L15.9978 21.6655L16.1601 21.5724C16.5873 21.3275 16.5684 20.6932 16.1278 20.4841C16 20.4235 15.6211 20.4159 12.4904 20.4109C10.2835 20.4074 9.12619 20.3923 9.34992 20.3699C10.1793 20.2868 11.2231 20.0031 11.8374 19.6937C12.557 19.3314 13.2338 18.7854 13.7235 18.1721L14.0132 17.8092L14.4084 17.7562C15.2079 17.6489 16.2055 17.3172 16.8274 16.9519C17.7909 16.386 18.5698 15.5362 18.9202 14.6688C19.1339 14.1396 19.1983 13.8051 19.2018 13.2059C19.2045 12.7383 19.1891 12.5873 19.1101 12.3117C18.8348 11.3511 18.1511 10.6601 17.269 10.4511C16.965 10.379 16.3169 10.3894 15.9639 10.472C15.8077 10.5086 15.6718 10.5385 15.6617 10.5385C15.6036 10.5385 15.6594 10.2564 15.7529 10.0776C15.9374 9.72485 15.8302 9.34453 15.5026 9.18903C15.3742 9.12813 14.9783 9.12138 11.5422 9.12138H7.72443V10.5548V11.9882L7.9054 12.1907C8.41497 12.7609 8.74386 13.2642 8.88799 13.6943C8.96718 13.9308 8.97481 14.0497 8.97481 15.0496C8.97481 16.2915 8.96114 16.3553 8.65788 16.5292C8.49883 16.6204 8.46707 16.6223 7.10491 16.623C5.75184 16.6236 5.70995 16.6212 5.55236 16.5326C5.4472 16.4735 5.36013 16.379 5.30403 16.2632C5.22201 16.0938 5.21834 16.0277 5.2311 14.9476L5.24452 13.8103L5.41661 13.456C5.6135 13.0507 5.90188 12.6325 6.24002 12.2616L6.47405 12.005V10.5632V9.12138L3.90036 9.12301C1.85491 9.1243 1.30058 9.13601 1.19955 9.18002ZM17.1151 11.7157C17.3125 11.7731 17.6125 12.0327 17.7473 12.2628C18.0042 12.701 18.0377 13.4088 17.8309 14.0249C17.4855 15.0537 16.6083 15.8454 15.3464 16.2672C14.9146 16.4115 14.7682 16.4424 14.7682 16.389C14.7682 16.3746 14.8165 16.2293 14.8755 16.066C15.2029 15.1608 15.4052 13.9991 15.5418 12.24L15.5667 11.9201L15.8404 11.8106C16.2975 11.6276 16.7074 11.597 17.1151 11.7157ZM6.84742 13.5001C6.47805 13.9983 6.47405 14.0115 6.47405 14.736V15.3733H7.09924H7.72443V14.7129V14.0525L7.55238 13.7855C7.33919 13.4547 7.14488 13.2059 7.0997 13.2059C7.08086 13.2059 6.96733 13.3383 6.84742 13.5001Z" fill="white"/>
</svg>
